<svg width="160" height="160" viewBox="0 0 160 160" fill="none" xmlns="http://www.w3.org/2000/svg">
  <defs>
    <radialGradient id="glow" cx="0" cy="0" r="1" gradientUnits="userSpaceOnUse" gradientTransform="translate(77 63) rotate(90) scale(78 84)">
      <stop stop-color="#C8D4FF"/>
      <stop offset="0.42" stop-color="#7F8AFF"/>
      <stop offset="1" stop-color="#5351D9"/>
    </radialGradient>
    <linearGradient id="body" x1="28" y1="18" x2="123" y2="129" gradientUnits="userSpaceOnUse">
      <stop stop-color="#AEBBFF"/>
      <stop offset="0.46" stop-color="#6F7AFF"/>
      <stop offset="1" stop-color="#5552D7"/>
    </linearGradient>
    <linearGradient id="badge" x1="106" y1="18" x2="139" y2="52" gradientUnits="userSpaceOnUse">
      <stop stop-color="#987CFF"/>
      <stop offset="1" stop-color="#6553F2"/>
    </linearGradient>
    <filter id="softShadow" x="8" y="15" width="129" height="126" filterUnits="userSpaceOnUse" color-interpolation-filters="sRGB">
      <feFlood flood-opacity="0" result="BackgroundImageFix"/>
      <feColorMatrix in="SourceAlpha" type="matrix" values="0 0 0 0 0 0 0 0 0 0 0 0 0 0 0 0 0 0 127 0" result="hardAlpha"/>
      <feOffset dy="14"/>
      <feGaussianBlur stdDeviation="12"/>
      <feComposite in2="hardAlpha" operator="out"/>
      <feColorMatrix type="matrix" values="0 0 0 0 0.12 0 0 0 0 0.11 0 0 0 0 0.42 0 0 0 0.42 0"/>
      <feBlend mode="normal" in2="BackgroundImageFix" result="effect1_dropShadow_1"/>
      <feBlend mode="normal" in="SourceGraphic" in2="effect1_dropShadow_1" result="shape"/>
    </filter>
    <filter id="badgeShadow" x="96" y="8" width="52" height="52" filterUnits="userSpaceOnUse" color-interpolation-filters="sRGB">
      <feFlood flood-opacity="0" result="BackgroundImageFix"/>
      <feColorMatrix in="SourceAlpha" type="matrix" values="0 0 0 0 0 0 0 0 0 0 0 0 0 0 0 0 0 0 127 0" result="hardAlpha"/>
      <feOffset dy="6"/>
      <feGaussianBlur stdDeviation="6"/>
      <feComposite in2="hardAlpha" operator="out"/>
      <feColorMatrix type="matrix" values="0 0 0 0 0.15 0 0 0 0 0.11 0 0 0 0 0.47 0 0 0 0.34 0"/>
      <feBlend mode="normal" in2="BackgroundImageFix" result="effect1_dropShadow_2"/>
      <feBlend mode="normal" in="SourceGraphic" in2="effect1_dropShadow_2" result="shape"/>
    </filter>
    <filter id="sparkleGlow" x="98" y="73" width="31" height="36" filterUnits="userSpaceOnUse" color-interpolation-filters="sRGB">
      <feGaussianBlur stdDeviation="2.4"/>
    </filter>
  </defs>

  <path d="M112.5 94.3C125.4 83.5 136.6 69.2 131.8 53.5C126.4 35.7 105 27.6 86.4 22.8C66.2 17.6 42.1 18.6 29.7 34.1C17.5 49.3 21.5 73.8 28.1 93.1C34.7 112.4 50.7 129.2 71.1 130.9C86.2 132.1 100.8 104.2 112.5 94.3Z" fill="url(#glow)" opacity="0.18"/>

  <g filter="url(#softShadow)">
    <path d="M24 64.6C24 43.1 41.4 25.8 62.8 25.8H92.5C111.7 25.8 127.3 41.4 127.3 60.6V91.2C127.3 112.6 109.9 130 88.5 130H55.5C38.1 130 24 115.9 24 98.5V64.6Z" fill="url(#body)"/>
    <path d="M31.2 62.8C31.2 46.3 44.6 32.9 61.1 32.9H91.3C107.1 32.9 120 45.7 120 61.6V91.7C120 109.1 105.9 123.2 88.5 123.2H55.8C42.2 123.2 31.2 112.2 31.2 98.6V62.8Z" fill="white" opacity="0.08"/>
    <path d="M45 41.5C53.5 32.7 71.2 32.7 78.9 38.4" stroke="white" stroke-opacity="0.28" stroke-width="8" stroke-linecap="round"/>
    <circle cx="59.5" cy="77" r="4.2" fill="#111827"/>
    <circle cx="85.4" cy="77" r="4.2" fill="#111827"/>
    <path d="M64.7 100.5H82.8" stroke="#111827" stroke-opacity="0.55" stroke-width="5" stroke-linecap="round"/>
  </g>

  <g filter="url(#badgeShadow)">
    <circle cx="122" cy="34" r="18" fill="url(#badge)"/>
    <circle cx="122" cy="34" r="17" stroke="white" stroke-opacity="0.2" stroke-width="2"/>
    <path d="M112.8 39.4L116.8 28.6H119.4L123.4 39.4H120.9L120.2 37.2H116L115.2 39.4H112.8ZM116.7 35.1H119.5L118.1 30.9L116.7 35.1ZM124.8 39.4V28.6H127.2V39.4H124.8Z" fill="white"/>
  </g>

  <path d="M24.9 33.1C26.4 42.9 31.9 48.1 41.4 49.2C31.9 50.3 26.4 55.4 24.9 65.3C23.4 55.4 18 50.3 8.4 49.2C18 48.1 23.4 42.9 24.9 33.1Z" fill="#F4D7FF" opacity="0.85"/>
  <path d="M112.6 79.4C113.9 86.5 118 90.4 125 91.3C118 92.2 113.9 96.1 112.6 103.2C111.4 96.1 107.3 92.2 100.2 91.3C107.3 90.4 111.4 86.5 112.6 79.4Z" fill="#F8D6FF" filter="url(#sparkleGlow)" opacity="0.85"/>
  <path d="M138.9 91.5C143.3 91.5 146.8 95 146.8 99.3C146.8 103.7 143.3 107.2 138.9 107.2C134.6 107.2 131.1 103.7 131.1 99.3C131.1 95 134.6 91.5 138.9 91.5Z" fill="#F1C5FF"/>
  <circle cx="29.8" cy="112.2" r="3.8" fill="#B9A7FF"/>
  <circle cx="137.4" cy="60.8" r="2.8" fill="#C7BDFF"/>
</svg>
